<svg id="Layer_2" data-name="Layer 2" xmlns="http://www.w3.org/2000/svg" viewBox="0 0 706.559 691.09" style="width: 100%; height: 100%;">
  <g id="Layer_1-2" data-name="Layer 1">
    <g>
      <g>
        <g>
          <polygon points="399.39 653.634 398.583 656.568 389.316 690.34 377.943 690.34 387.215 656.568 388.816 650.731 399.39 653.634" fill="#fff" stroke="#b7b7b7" stroke-linecap="round" stroke-linejoin="round" stroke-width="1.5"></polygon>
          <polygon points="543.458 690.34 532.085 690.34 522.817 656.568 522.01 653.634 532.585 650.731 534.186 656.568 543.458 690.34" fill="#fff" stroke="#b7b7b7" stroke-linecap="round" stroke-linejoin="round" stroke-width="1.5"></polygon>
        </g>
        <g>
          <rect x="369.601" y="517.459" width="182.198" height="137.313" transform="translate(921.4 1172.23) rotate(-180)" fill="#fff" stroke="#b7b7b7" stroke-linecap="round" stroke-linejoin="round" stroke-width="1.5"></rect>
          <rect x="369.601" y="586.115" width="182.198" height="68.656" transform="translate(921.4 1240.886) rotate(-180)" fill="#fff" stroke="#b7b7b7" stroke-linecap="round" stroke-linejoin="round" stroke-width="1.5"></rect>
          <circle cx="460.7" cy="554.015" r="8.194" fill="#fff" stroke="#b7b7b7" stroke-linecap="round" stroke-linejoin="round" stroke-width="1.5"></circle>
          <circle cx="460.7" cy="621.087" r="8.194" fill="#fff" stroke="#b7b7b7" stroke-linecap="round" stroke-linejoin="round" stroke-width="1.5"></circle>
        </g>
      </g>
      <line x1="7.438" y1="689.767" x2="705.809" y2="689.767" fill="none" stroke="#000" stroke-linecap="round" stroke-linejoin="round" stroke-width="1.5"></line>
      <g>
        <g>
          <rect x="113.294" y=".75" width="488.947" height="348.235" fill="#fff" stroke="#ffffff" stroke-linecap="round" stroke-linejoin="round" stroke-width="1.5"></rect>
          <g>
            <line x1="276.041" y1="23.718" x2="276.041" y2="326.017" fill="#fff" stroke="#ffffff" stroke-linecap="round" stroke-linejoin="round" stroke-width="1.5"></line>
            <line x1="439.493" y1="23.718" x2="439.493" y2="326.017" fill="#fff" stroke="#ffffff" stroke-linecap="round" stroke-linejoin="round" stroke-width="1.5"></line>
          </g>
        </g>
        <g>
          <rect x="152.917" y="38.433" width="39.15" height="39.15" transform="translate(-7.618 31.953) rotate(-10.356)" fill="#fff" stroke="#000" stroke-linecap="round" stroke-linejoin="round" stroke-width="1.5"></rect>
          <g>
            <line x1="156.277" y1="50.208" x2="174.592" y2="46.728" stroke="#000" stroke-linecap="round" stroke-linejoin="round" stroke-width="1.5"></line>
            <line x1="157.422" y1="55.194" x2="182.192" y2="50.488" stroke="#000" stroke-linecap="round" stroke-linejoin="round" stroke-width="1.5"></line>
            <line x1="158.602" y1="60.201" x2="185.374" y2="55.115" stroke="#000" stroke-linecap="round" stroke-linejoin="round" stroke-width="1.5"></line>
            <line x1="159.51" y1="65.453" x2="180.673" y2="61.432" stroke="#000" stroke-linecap="round" stroke-linejoin="round" stroke-width="1.5"></line>
          </g>
        </g>
        <g>
          <rect x="315.389" y="166.744" width="39.15" height="39.15" transform="translate(44.21 -63.436) rotate(11.578)" fill="#fff" stroke="#ffffff" stroke-linecap="round" stroke-linejoin="round" stroke-width="1.5"></rect>
          <g>
            <line x1="322.837" y1="173.027" x2="341.125" y2="176.64" fill="#fff" stroke="#ffffff" stroke-linecap="round" stroke-linejoin="round" stroke-width="1.5"></line>
            <line x1="322.036" y1="178.08" x2="346.771" y2="182.967" fill="#fff" stroke="#ffffff" stroke-linecap="round" stroke-linejoin="round" stroke-width="1.5"></line>
            <line x1="321.261" y1="183.165" x2="347.994" y2="188.447" fill="#fff" stroke="#ffffff" stroke-linecap="round" stroke-linejoin="round" stroke-width="1.5"></line>
            <line x1="320.141" y1="188.376" x2="341.274" y2="192.551" fill="#fff" stroke="#ffffff" stroke-linecap="round" stroke-linejoin="round" stroke-width="1.5"></line>
          </g>
        </g>
        <g>
          <rect x="302.052" y="57.493" width="43.46" height="43.46" transform="translate(-9.138 95.816) rotate(-16.602)" fill="#fff" stroke="#000" stroke-linecap="round" stroke-linejoin="round" stroke-width="1.5"></rect>
          <polyline points="311.859 96.062 318.715 81.944 324.221 85.312 330.375 74.774 343.405 86.875" fill="#fff" stroke="#ffffff" stroke-linecap="round" stroke-linejoin="round" stroke-width="1.5"></polyline>
          <circle cx="321.009" cy="72.058" r="2.111" fill="#fff" stroke="#ffffff" stroke-linecap="round" stroke-linejoin="round" stroke-width="1.5"></circle>
        </g>
        <g>
          <rect x="370.858" y="240.542" width="39.15" height="39.15" transform="translate(-31.464 54.931) rotate(-7.737)" fill="#fff" stroke="#000" stroke-linecap="round" stroke-linejoin="round" stroke-width="1.5"></rect>
          <g>
            <line x1="374.591" y1="251.584" x2="393.045" y2="248.945" stroke="#000" stroke-linecap="round" stroke-linejoin="round" stroke-width="1.5"></line>
            <line x1="375.507" y1="256.618" x2="400.466" y2="253.048" stroke="#000" stroke-linecap="round" stroke-linejoin="round" stroke-width="1.5"></line>
            <line x1="376.457" y1="261.673" x2="403.433" y2="257.815" stroke="#000" stroke-linecap="round" stroke-linejoin="round" stroke-width="1.5"></line>
            <line x1="377.124" y1="266.961" x2="398.448" y2="263.911" stroke="#000" stroke-linecap="round" stroke-linejoin="round" stroke-width="1.5"></line>
          </g>
          <rect x="383.702" y="233.286" width="6.069" height="11.68" transform="translate(-15.332 26.788) rotate(-3.89)" fill="#ffffff" stroke="#000" stroke-linecap="round" stroke-linejoin="round" stroke-width="1.5"></rect>
        </g>
        <g>
          <rect x="370.37" y="101.778" width="39.15" height="39.15" transform="translate(32.29 -75.793) rotate(11.578)" fill="#fff" stroke="#000" stroke-linecap="round" stroke-linejoin="round" stroke-width="1.5"></rect>
          <g>
            <line x1="377.818" y1="108.061" x2="396.106" y2="111.674" fill="#fff" stroke="#000" stroke-linecap="round" stroke-linejoin="round" stroke-width="1.5"></line>
            <line x1="377.017" y1="113.114" x2="401.752" y2="118.001" fill="#fff" stroke="#000" stroke-linecap="round" stroke-linejoin="round" stroke-width="1.5"></line>
            <line x1="376.242" y1="118.199" x2="402.976" y2="123.481" fill="#fff" stroke="#000" stroke-linecap="round" stroke-linejoin="round" stroke-width="1.5"></line>
            <line x1="375.122" y1="123.41" x2="396.255" y2="127.585" fill="#fff" stroke="#000" stroke-linecap="round" stroke-linejoin="round" stroke-width="1.5"></line>
          </g>
        </g>
        <g>
          <rect x="486.128" y="64.246" width="39.15" height="39.15" transform="translate(55.398 -161.101) rotate(19.131)" fill="#fff" stroke="#000" stroke-linecap="round" stroke-linejoin="round" stroke-width="1.5"></rect>
          <g>
            <line x1="495.428" y1="69.05" x2="513.083" y2="75.036" stroke="#000" stroke-linecap="round" stroke-linejoin="round" stroke-width="1.5"></line>
            <line x1="493.97" y1="73.954" x2="517.848" y2="82.049" stroke="#000" stroke-linecap="round" stroke-linejoin="round" stroke-width="1.5"></line>
            <line x1="492.533" y1="78.894" x2="518.341" y2="87.643" stroke="#000" stroke-linecap="round" stroke-linejoin="round" stroke-width="1.5"></line>
            <line x1="490.738" y1="83.911" x2="511.139" y2="90.828" stroke="#000" stroke-linecap="round" stroke-linejoin="round" stroke-width="1.5"></line>
          </g>
        </g>
      </g>
      <g>
        <g>
          <path d="m137.4,119.939l-3.406-2.876c-1.023-5.198-2.322-10.295-3.498-13.829-.611-1.842-4.8-11.777-19.033-12.799-12.031-.864-20.991,6.799-25.439,16.856-2.001,4.525-2.464,9.578-1.536,14.438,2.352,12.315,9.033,45.431,9.033,45.431,0,0,1.144,15.602,20.63,11.62,16.37-3.344,12.258-17.522,12.258-17.522l-2.899-14.51c6.6-2.628,10.285-6.12,11.804-10.442.871-2.467.547-7.774-.343-13.651l2.414-1.085c.584-.383.592-1.237.014-1.631Z" fill="#fdfdfd" stroke="#000" stroke-linecap="round" stroke-linejoin="round" stroke-width="1.5"></path>
          <path id="f1_h" d="m147.677,82.229c-1.929-9.473-11.175-15.584-20.648-13.646-2.331.471-4.453,1.397-6.312,2.654-3.457-3.99-8.905-6.059-14.44-4.924-5.919,1.205-10.302,5.727-11.655,11.228-.515.079-1.03.166-1.545.271-15.069,3.073-24.795,17.793-21.722,32.862.338,1.653.821,3.239,1.424,4.754,2.181,7.359,8.36,26.038,15.826,29.574,7.306,3.461,17.411-.369,22.982-4.301,5.571-3.933,4.916-14.174,4.916-14.174l-1.195-5.904.048.005,5.08-1.065-1.601-7.428c5.698-1.913,3.65-10.024,3.65-10.024l6.964-1.673c.329.753.682,1.697,1.047,2.798,1.17.009,2.349-.105,3.536-.349,9.473-1.938,15.584-11.184,13.646-20.657Z"></path>
          <g id="f1_eye">
            <path d="m131.855,112.318l-.015-.13c.008-.2-.034-.386-.125-.559-.058-.18-.158-.335-.3-.467-.131-.141-.287-.241-.467-.3-.173-.091-.359-.132-.559-.125l-.385.052c-.246.069-.459.193-.64.373l-.227.293c-.131.226-.197.47-.198.732l.015.13c-.008.2.034.386.125.559.058.18.158.335.3.467.131.141.287.241.467.3.173.091.359.132.559.125l.385-.052c.246-.069.459-.193.64-.373l.227-.293c.131-.226.197-.47.198-.732h0Z"></path>
          </g>
          <path id="f1_eb" d="m130.933,105.464s-4.852,1.112-5.231,5.03" fill="none" stroke="#000" stroke-linecap="round" stroke-linejoin="round" stroke-width="1.5"></path>
          <path id="f1_e" d="m119.092,128.715c-4.09.835-8.092-1.848-8.938-5.993-.81-3.967,1.568-7.827,5.358-8.884" fill="#fdfdfd" stroke="#000" stroke-linecap="round" stroke-linejoin="round" stroke-width="1.5"></path>
          <path id="f1_st" d="m116.994,147.213c3.81.614,6.52-.466,6.52-.466" fill="none" stroke="#000" stroke-linecap="round" stroke-linejoin="round" stroke-width="1.5"></path>
          <polygon id="f1_sh" points="125.167 155.079 116.687 147.613 123.57 146.876 125.167 155.079"></polygon>
          <path id="f1_m" d="m126.828,127.12s1.855,3.601,6.548,1.964" fill="none" stroke="#000" stroke-linecap="round" stroke-linejoin="round" stroke-width="1.5"></path>
        </g>
        <g>
          <path id="l3_shoe" d="m81.221,657.617l-.725,31.535h68.424s9.886-15.523-12.868-17.419c-14.416-1.201-10.383-15.617-10.383-15.617"></path>
          <polyline id="l3_f" points="146.07 303.346 139.741 662.746 69.877 662.834 62.3 310.333" fill="#ffffff"></polyline>
          <line id="l3_stw" x1="123.618" y1="395.053" x2="122.082" y2="662.834" fill="none" stroke="#fdfdfd" stroke-linecap="round" stroke-linejoin="round" stroke-width="1.5"></line>
          <polyline id="l3_st" points="144.875 352.858 139.741 662.746 69.877 662.834 62.533 310.045" fill="none" stroke="#000" stroke-linecap="round" stroke-linejoin="round" stroke-width="1.5"></polyline>
          <path id="l3_shoe-2" data-name="l3_shoe" d="m57.738,648.711s-9.249,9.215.602,19.808c15.549,16.721-1.831,21.248-1.831,21.248L0,643.397l19.211-23.5"></path>
          <path id="l3_f-2" data-name="l3_f" d="m193.968,502.477l-130.459,157.917-55.726-41.927,128.06-154.737-28.201-157.302,68.715-5.504,29.021,156.168c2.483,15.966-1.674,32.498-11.409,45.386Z" fill="#ffffff"></path>
          <path id="l3_stw-2" data-name="l3_stw" d="m160.511,302.086l27.075,155.47c1.548,10.514-1.222,21.207-7.68,29.647l-134.159,159.887" fill="none" stroke="#fdfdfd" stroke-linecap="round" stroke-linejoin="round" stroke-width="1.5"></path>
          <path id="l3_st-2" data-name="l3_st" d="m62.533,310.045l113.982-9.14,28.839,156.069c2.533,16.039-1.643,32.658-11.454,45.595l-130.47,157.932-55.565-42.143,127.955-154.616-21.564-112.742" fill="none" stroke="#000" stroke-linecap="round" stroke-linejoin="round" stroke-width="1.5"></path>
          <g id="b5_h">
            <path id="b5_h-2" data-name="b5_h" d="m170.269,139.684c.019.242-3.366,2.697-7.783.735.205-.121.391-.298.558-.539.623-.883,3.357-1.553,5.858-1.99.79.921,1.358,1.627,1.367,1.795Z" fill="#fdfdfd" stroke="#000" stroke-linecap="round" stroke-linejoin="round" stroke-width="1.5"></path>
            <path id="b5_h-3" data-name="b5_h" d="m168.902,137.889c-2.501.437-5.235,1.107-5.858,1.99-.167.242-.353.418-.558.539-.409-.186-.828-.4-1.255-.67-.632-.391-1.283-.874-1.943-1.478-.214-.195-.428-.391-.632-.577,1.59-1.218,4.742-2.204,7.411-2.864" fill="#fdfdfd" stroke="#000" stroke-linecap="round" stroke-linejoin="round" stroke-width="1.5"></path>
            <path id="b5_h-4" data-name="b5_h" d="m166.066,134.83c-2.669.66-5.821,1.646-7.411,2.864-1.32-1.2-2.39-2.129-3.366-2.706,1.516-1.999,4.227-3.274,6.291-3.888" fill="#fdfdfd" stroke="#000" stroke-linecap="round" stroke-linejoin="round" stroke-width="1.5"></path>
            <path id="b5_h-5" data-name="b5_h" d="m150.112,122.6c3.353-.869,12.89,1.329,23.011,8.316,5.511,3.805,26.407,26.937,30.721,31.738l1.087.836-32.337,7.109s-12.603-22.292-15.047-25.259c-4.295-5.215-8.203-9.686-5.847-10.733,2.356-1.047,4.179.544,7.592,3.665,5.862,5.362,11.006,1.709,10.977,1.41-.048-.498-3.417-4.538-6.509-6.974-4.375-3.446-7.86-4.914-13.483-7.206-1.437-.586-1.134-2.649-.164-2.9Z" fill="#fdfdfd" stroke="#000" stroke-linecap="round" stroke-linejoin="round" stroke-width="1.5"></path>
          </g>
          <path id="b5_f" d="m256.579,230.372c-.059-.098-.116-.196-.176-.293-.129-.206-.267-.408-.404-.611-.14-.21-.27-.425-.417-.631l-58.682-82.699-16.437,10.93-16.528,10.815,2.347,2.6s-2.107-1.26-5.472-3.689c-9.244-6.673-15.975-9.402-27.218-7.628l-59.799,5.849s-3.654.363-8.192,2.362c-3.152,1.209-6.072,3.106-8.508,5.635-2.036,1.962-3.924,4.408-5.412,7.43l-18.219,52.099c-1.174,3.356-2.632,6.599-4.115,9.83-3.072,6.694-2.834,14.465.648,20.955,1.923,3.585,32.166,39.579,32.166,39.579.074.102.372,7.14.372,7.14l113.982-9.14c-1.291-29.94-3.302-52.476-3.907-67.347,18.087,11.339,45.61,28.303,51.78,30.475,3.348,1.178,6.864,1.754,10.333,1.764,5.287.431,10.748-.911,15.413-4.22,10.075-7.148,12.774-20.813,6.445-31.204Z" fill="#fdfdff"></path>
          <path id="b5_st" d="m256.579,230.372c-.059-.098-.116-.196-.176-.293-.129-.206-.267-.408-.404-.611-.14-.21-.27-.425-.417-.631l-58.682-82.699-16.437,10.93-16.528,10.815,2.347,2.6s-9.66-6.509-10.404-7.025c-5.202-3.613-12.381-5.699-22.286-4.292l-59.799,5.849s-3.654.363-8.192,2.362c-3.152,1.209-6.072,3.106-8.508,5.635-2.036,1.962-3.924,4.408-5.412,7.43l-18.219,52.099c-1.174,3.356-2.632,6.599-4.115,9.83-3.072,6.694-2.834,14.465.648,20.955,1.923,3.585,32.166,39.579,32.166,39.579.074.102-.093-.102,0,0l.372,7.14,113.982-9.14c-1.291-29.94-3.302-52.476-3.907-67.347,18.087,11.339,45.61,28.303,51.78,30.475,3.348,1.178,6.864,1.754,10.333,1.764,5.287.431,10.748-.911,15.413-4.22,10.075-7.148,12.774-20.813,6.445-31.204Z" fill="none" stroke="#000" stroke-linecap="round" stroke-linejoin="round" stroke-width="1.5"></path>
          <line id="b5_st-2" data-name="b5_st" x1="62.533" y1="310.045" x2="59.511" y2="229.436" fill="none" stroke="#000" stroke-linecap="round" stroke-linejoin="round" stroke-width="1.5"></line>
          <path id="b5_st-3" data-name="b5_st" d="m156.375,223.303s6.846,4.37,16.233,10.254" fill="none" stroke="#000" stroke-linecap="round" stroke-linejoin="round" stroke-width="1.5"></path>
          <line id="b5_st-4" data-name="b5_st" x1="231.246" y1="216.23" x2="163.907" y2="168.812" fill="none" stroke="#000" stroke-linecap="round" stroke-linejoin="round" stroke-width="1.5"></line>
          <line id="b5_st-5" data-name="b5_st" x1="202.973" y1="154.71" x2="172.867" y2="174.867" fill="none" stroke="#000" stroke-linecap="round" stroke-linejoin="round" stroke-width="1.5"></line>
        </g>
      </g>
      <g>
        <polygon id="sk" points="541.416 609.892 543.094 662.967 576.894 662.967 578.363 610.552 541.416 609.892" fill="#fffdfd" stroke="#000" stroke-linecap="round" stroke-linejoin="round" stroke-width="1.5"></polygon>
        <path id="l" d="m579.375,689.767h-12.217c-1.185-2.739-3.371-6.053-3.371-6.053l-3.901,6.053h-49.707s-6.129-16.016,13.511-16.881c20.758-.914,17.866-26.507,17.866-26.507h14.898l4.57,9.627,5.151-9.627h12.099l1.101,43.388Z" fill="#ffffff" stroke="#000" stroke-linecap="round" stroke-linejoin="round" stroke-width="1.5"></path>
        <polygon id="sk-2" data-name="sk" points="633.331 608.95 635.95 662.967 669.751 662.967 670.279 610.552 633.331 608.95" fill="#fffdfd" stroke="#000" stroke-linecap="round" stroke-linejoin="round" stroke-width="1.5"></polygon>
        <path id="l-2" data-name="l" d="m672.232,689.767h-12.217c-1.185-2.739-3.371-6.053-3.371-6.053l-3.901,6.053h-50.648s-6.129-16.016,13.511-16.881c20.758-.914,18.807-26.507,18.807-26.507h14.898l4.57,9.627,5.151-9.627h12.099l1.101,43.388Z" fill="#ffffff" stroke="#000" stroke-linecap="round" stroke-linejoin="round" stroke-width="1.5"></path>
        <path id="l-3" data-name="l" d="m548.993,300.567l-38.575,138.624c-1.283,5.049-1.489,10.31-.604,15.444l12.516,176.733,66.068-.591-9.773-180.962,17.287-56.992,16.745,238.566,65.358-.825-15.959-330.13-113.062.133Z" fill="#ffffff"></path>
        <line id="st" x1="595.911" y1="392.823" x2="592.228" y2="348.459" fill="none" stroke="#000" stroke-linecap="round" stroke-linejoin="round" stroke-width="1.5"></line>
        <path id="l-4" data-name="l" d="m548.993,300.567l-38.575,138.624c-1.283,5.049-1.489,10.31-.604,15.444l12.516,176.733,66.068-.591-9.773-180.962,17.287-56.992,16.745,238.566,65.358-.825-16.857-330.062-112.164.065Z" fill="none" stroke="#000" stroke-linecap="round" stroke-linejoin="round" stroke-width="1.5"></path>
        <polyline id="h_7_h" points="628.24 136.668 683.96 238.044 628.609 249.553 622.651 137.83" fill="#ffffff" stroke="#000" stroke-linecap="round" stroke-linejoin="round" stroke-width="1.5"></polyline>
        <path id="h_7_h-2" data-name="h_7_h" d="m636.018,103.107c-4.083-19.632-17.339-33.134-37.003-33.169-19.665-.035-35.456,17.052-35.492,37.104l24.725-1.336,23.869,40.021s31.408-6.531,23.901-42.619Z" fill="#ffffff" stroke="#000" stroke-linecap="round" stroke-linejoin="round" stroke-width="1.5"></path>
        <path id="h_7_h-3" data-name="h_7_h" d="m631.348,142.323l-8.407,4.727-2.261-4.732s2.191-1.216,3.781-2.415c2.529-1.907,4.029-3.35,4.029-3.35l2.858,5.77Z" fill="#050505" stroke="#000" stroke-linecap="round" stroke-linejoin="round" stroke-width="1.5"></path>
        <path id="h_7_h-4" data-name="h_7_h" d="m619.159,127.45c4.219-.065,7.578-3.601,7.504-7.897-.072-4.111-3.265-7.421-7.237-7.641-3.147-13.822-14.563-24.215-29.048-23.99-10.891.169-14.762,6.109-19.909,15.003-2.723,4.706-1.935,32.304,1.738,38.226,2.456,3.96,6.853,6.617,13.939,7.782l.344,16.076s-.928,15.521,15.941,14.705c17.11-.827,16.941-15.858,16.941-15.858,0,0-.496-34.334-.358-36.411.049,0,.097.006.146.005Z" fill="#fffdfd" stroke="#000" stroke-linecap="round" stroke-linejoin="round" stroke-width="1.5"></path>
        <path id="h_7_sh" d="m600.517,146.013l-14.065,15.977-.307-13.057s4.594.415,8.828-.804c4.234-1.219,5.544-2.116,5.544-2.116Z" stroke="#000" stroke-linecap="round" stroke-linejoin="round" stroke-width="1.5"></path>
        <path id="h_7_h-5" data-name="h_7_h" d="m564.365,106.737l33.908-1.464,4.192-6.458,3.247,6.649s2.979,8.367,13.536,6.083l7.98-1.922-10.615-27.834-45.469,6.806-6.779,18.14Z" fill="#ffffff"></path>
        <path id="h_7_st" d="m563.523,107.042l34.75-1.769,4.192-6.458,3.247,6.649s3.156,8.733,13.713,6.449" fill="none" stroke="#000" stroke-linecap="round" stroke-linejoin="round" stroke-width="1.5"></path>
        <g>
          <path d="m593.198,114.945c.007-.192-.033-.373-.114-.522-.056-.172-.153-.324-.284-.445-.126-.136-.277-.233-.433-.282-.166-.087-.347-.126-.548-.119l-.349.048c-.23.064-.432.182-.611.361l-.204.266c-.123.212-.186.443-.186.7l.013.118c-.007.191.034.372.114.522.056.173.153.325.283.445.126.135.277.233.434.282.152.08.317.121.498.121.017,0,.033,0,.05,0l.349-.048c.23-.064.432-.182.611-.361l.204-.267c.123-.212.186-.443.186-.688l-.014-.128Z"></path>
          <path d="m577.348,114.952c-.056-.173-.153-.324-.283-.445-.126-.135-.277-.233-.434-.282-.167-.087-.349-.124-.548-.12l-.349.048c-.23.064-.432.182-.611.361l-.204.267c-.123.212-.186.443-.186.699l.013.118c-.007.191.033.372.114.522.056.173.153.324.284.445.126.136.277.233.433.282.153.08.317.121.499.121.016,0,.033,0,.05,0l.349-.048c.23-.064.433-.183.611-.361l.204-.267c.123-.212.186-.443.187-.688l-.014-.129c.007-.191-.034-.372-.114-.522Z"></path>
        </g>
        <path id="e_4_st" d="m582.618,122.2l-.795,3.758c-.147.694.455,1.317,1.15,1.189l3.301-.606" fill="none" stroke="#000" stroke-linecap="round" stroke-linejoin="round" stroke-width="1.5"></path>
        <path id="e_4_st-2" data-name="e_4_st" d="m590.949,109.882s4.745-1.673,7.187,1.488" fill="none" stroke="#000" stroke-linecap="round" stroke-linejoin="round" stroke-width="1.5"></path>
        <path id="e_4_st-3" data-name="e_4_st" d="m596.414,130.051s-1.423,5.17-7.921,4.306" fill="none" stroke="#000" stroke-linecap="round" stroke-linejoin="round" stroke-width="1.5"></path>
        <path id="e_4_st-4" data-name="e_4_st" d="m572.506,111.794s3.66-2.989,7.194-1.151" fill="none" stroke="#000" stroke-linecap="round" stroke-linejoin="round" stroke-width="1.5"></path>
        <path id="b" d="m661.372,288.388c.198,2.099.574,12.499.574,12.499l-113.318-.32s.536-5.675.904-13.864c-5.958,6.362-10.532,13.77-25.591,12.678-11.21-.809-17.468-8.612-22.099-15.906l-41.13-55.348,29.621-20.984,19.386,21.904,12.857,14.522,18.57-62.918c1.779-3.624,4.358-6.598,7.417-8.809,4.499-3.831,12.414-6.438,22.127-6.381l15.793-.179c-.028,2.071.405,15.181,15.944,14.438,14.372-.696,16.556-11.407,16.885-14.824l25.515-.292s2.503-.094,4.292.132c11.652,1.506,19.454,8.621,23.642,16.094,2.315,4.122,3.482,8.781,3.586,13.506l1.402,67.436.113.772c.932,11.84-5.638,22.598-16.489,25.845Z"></path>
        <g id="ha">
          <path id="sk-3" data-name="sk" d="m570.407,188.236s-5.366-4.12-7.306-8.141c-1.94-4.021-5.249-1.053-4.381,2.255.869,3.308,3.277,5.421,3.277,5.421" fill="#fffdfd" stroke="#000" stroke-linecap="round" stroke-linejoin="round" stroke-width="1.5"></path>
          <polygon id="ob_b" points="534.866 197.569 572.295 175.495 568.975 169.719 531.545 191.792 534.866 197.569" fill="#ffffff" stroke="#000" stroke-linecap="round" stroke-linejoin="round" stroke-width="1.5"></polygon>
          <line id="st-2" data-name="st" x1="564.554" y1="172.554" x2="567.748" y2="178.109" fill="#fdfdfd" stroke="#000" stroke-linecap="round" stroke-linejoin="round" stroke-width="1.5"></line>
          <polygon id="ob" points="534.866 197.569 527.224 198.119 531.545 191.792 534.866 197.569" fill="#fff" stroke="#000" stroke-linecap="round" stroke-linejoin="round" stroke-width="1.5"></polygon>
          <polygon id="ob_bl" points="530.762 197.352 529.385 194.956 527.452 197.988 530.762 197.352"></polygon>
          <path id="sk-4" data-name="sk" d="m562.687,184.436c-4.8-1.75-8.896-2.506-12.76-3.025-7.71-1.036-12.926,2.666-15.262,4.041-1.015.597-.691,3.026,1.123,3.224,2.385.26,5.146-2.272,7.089-1.984,2.205.328,3.792.664,5.504,1.197-3.672,1.767-4.981,4.446-4.298,6.733-1.678,1.905-2.022,4.127-1.55,5.267.072.173.233.315.462.432-.864,2.098-.442,4.102.712,4.216,2.261.225,2.409-3.762,6.298-2.511.987.317,6.712,5.273,6.712,5.273,1.908,1.695,16.687,15.079,16.687,15.079l14.3-24.259c-10.165-6.098-21.039-12.234-25.014-13.683Z" fill="#fffdfd" stroke="#000" stroke-linecap="round" stroke-linejoin="round" stroke-width="1.5"></path>
          <path id="st-3" data-name="st" d="m561.152,188.73s-5.963-3.147-10.669-1.668c-.773.243-1.474.519-2.106.823" fill="none" stroke="#000" stroke-linecap="round" stroke-linejoin="round" stroke-width="1.5"></path>
          <path id="st-4" data-name="st" d="m558.833,193.303s-6.366-3.134-11.393-1.035c-1.461.61-2.563,1.444-3.362,2.35" fill="none" stroke="#000" stroke-linecap="round" stroke-linejoin="round" stroke-width="1.5"></path>
          <path id="st-5" data-name="st" d="m542.989,200.319c.497-1.206,1.422-2.444,2.88-3.372,3.995-2.544,10.954,1.639,10.954,1.639" fill="none" stroke="#000" stroke-linecap="round" stroke-linejoin="round" stroke-width="1.5"></path>
        </g>
        <line id="st-6" data-name="st" x1="640.66" y1="230.332" x2="640.358" y2="213.847" fill="none" stroke="#fdfdff" stroke-linecap="round" stroke-linejoin="round" stroke-width="1.5"></line>
        <path id="st-7" data-name="st" d="m552.577,222.378c-.121,4.44-1.894,43.939-2.846,65.002" fill="none" stroke="#fdfdff" stroke-linecap="round" stroke-linejoin="round" stroke-width="1.5"></path>
        <g id="ha-2" data-name="ha">
          <path id="sk-5" data-name="sk" d="m458.887,192.453s-.972-6.077-1.898-9.627c-.926-3.55,5.458-3.408,6.501,1.227,1.043,4.635,1.013,5.437,1.013,5.437" fill="#fffdfd" stroke="#000" stroke-linecap="round" stroke-linejoin="round" stroke-width="1.5"></path>
          <polygon id="b-2" data-name="b" points="526.639 226.474 513.185 164.349 460.589 164.349 458.025 166.924 524.075 229.049 526.639 226.474 526.639 226.474" fill="#ffffff" stroke="#000" stroke-linecap="round" stroke-linejoin="round" stroke-width="1.5"></polygon>
          <polygon id="b-3" data-name="b" points="524.075 229.049 510.622 166.924 458.025 166.924 471.479 229.049 471.479 229.049 524.075 229.049 524.075 229.049" fill="#ffffff" stroke="#000" stroke-linecap="round" stroke-linejoin="round" stroke-width="1.5"></polygon>
          <path id="st-8" data-name="st" d="m468.717,169.358c-2.155,0-3.902-1.747-3.902-3.902s1.747-3.902,3.902-3.902c1.616,0,3.003.983,3.596,2.383" fill="none" stroke="#000" stroke-linecap="round" stroke-linejoin="round" stroke-width="1.5"></path>
          <path id="st-9" data-name="st" d="m473.818,169.358c-2.155,0-3.902-1.747-3.902-3.902s1.747-3.902,3.902-3.902c1.616,0,3.003.983,3.596,2.383" fill="none" stroke="#000" stroke-linecap="round" stroke-linejoin="round" stroke-width="1.5"></path>
          <path id="st-10" data-name="st" d="m478.92,169.358c-2.155,0-3.902-1.747-3.902-3.902s1.747-3.902,3.902-3.902c1.616,0,3.003.983,3.596,2.383" fill="none" stroke="#000" stroke-linecap="round" stroke-linejoin="round" stroke-width="1.5"></path>
          <path id="st-11" data-name="st" d="m484.021,169.358c-2.155,0-3.902-1.747-3.902-3.902s1.747-3.902,3.902-3.902c1.616,0,3.003.983,3.596,2.383" fill="none" stroke="#000" stroke-linecap="round" stroke-linejoin="round" stroke-width="1.5"></path>
          <path id="st-12" data-name="st" d="m489.123,169.358c-2.155,0-3.902-1.747-3.902-3.902s1.747-3.902,3.902-3.902c1.616,0,3.003.983,3.596,2.383" fill="none" stroke="#000" stroke-linecap="round" stroke-linejoin="round" stroke-width="1.5"></path>
          <path id="st-13" data-name="st" d="m494.224,169.358c-2.155,0-3.902-1.747-3.902-3.902s1.747-3.902,3.902-3.902c1.616,0,3.003.983,3.596,2.383" fill="none" stroke="#000" stroke-linecap="round" stroke-linejoin="round" stroke-width="1.5"></path>
          <path id="st-14" data-name="st" d="m499.326,169.358c-2.155,0-3.902-1.747-3.902-3.902s1.747-3.902,3.902-3.902c1.616,0,3.003.983,3.596,2.383" fill="none" stroke="#000" stroke-linecap="round" stroke-linejoin="round" stroke-width="1.5"></path>
          <path id="st-15" data-name="st" d="m504.428,169.358c-2.155,0-3.902-1.747-3.902-3.902s1.747-3.902,3.902-3.902c1.616,0,3.003.983,3.596,2.383" fill="none" stroke="#000" stroke-linecap="round" stroke-linejoin="round" stroke-width="1.5"></path>
          <line id="st-16" data-name="st" x1="510.622" y1="166.924" x2="513.185" y2="164.349" fill="#ffffff" stroke="#000" stroke-linecap="round" stroke-linejoin="round" stroke-width="1.5"></line>
          <path id="sk-6" data-name="sk" d="m466.94,194.547c1.698-.598,2.896-1.079,5.084-1.749,3.634-1.113,3.398-4.826-1.354-4.146-.695.099-2.538.191-4.041.509,1.218-.464,2.489-.806,3.84-1.676,2.457-1.582.747-3.503-2.127-3.486-1.312.007-3.839-.015-7.387,1.87-2.732,1.451-5.294,3.476-5.961,5.192-1.818,4.68.927,15.402,2.01,19.279,1.628,5.817,4.16,11.257,6.927,16.113l6.061-4.254-3.427-15.858c1.386-1.386,4.598-2.642,6.19-3.635,1.197-.747,1.166-2.096-.58-2.708-.847-.297-2.367-.8-5.019-.004.223-.192.457-.172.652-.337,1.969-1.663,5.651-1.012,6.354-2.958.493-1.364-1.289-3.456-7.223-2.152Z" fill="#fffdfd" stroke="#000" stroke-linecap="round" stroke-linejoin="round" stroke-width="1.5"></path>
          <path id="st-17" data-name="st" d="m457.945,195.277s2.283-3.04,4.892-4.702c1.182-.753,2.701-1.205,4.089-1.476" fill="#feffff" stroke="#000" stroke-linecap="round" stroke-linejoin="round" stroke-width="1.5"></path>
          <path id="st-18" data-name="st" d="m468.086,199.448c-1.995,1.013-5.651,4.23-5.651,4.23" fill="none" stroke="#000" stroke-linecap="round" stroke-linejoin="round" stroke-width="1.5"></path>
          <path id="st-19" data-name="st" d="m460.247,199.544s2.34-2.99,5.138-4.409c.469-.238.999-.433,1.554-.591" fill="none" stroke="#000" stroke-linecap="round" stroke-linejoin="round" stroke-width="1.5"></path>
          <line id="st-20" data-name="st" x1="466.566" y1="206.341" x2="464.815" y2="207.944" fill="#feffff" stroke="#000" stroke-linecap="round" stroke-linejoin="round" stroke-width="1.5"></line>
        </g>
        <path id="b-4" data-name="b" d="m653.213,239.517l-67.148-49.131-20.977,32.062s77.272,60.613,79.209,61.762c6.302,3.737,13.665,5.043,17.3,4.184" stroke="#fdfdff" stroke-linecap="round" stroke-linejoin="round" stroke-width="1.5"></path>
      </g>
    </g>
  </g>
</svg>