<svg width="250" height="264" viewBox="0 0 250 264" fill="none" xmlns="http://www.w3.org/2000/svg" style="width: 100%; height: 100%;">
<g clip-path="url(#clip0_35_3493)">
<path d="M217.203 56.97C225.206 55.841 232.013 48.88 232.964 40.854C232.285 47.765 238.88 54.295 245.307 56.924C242.016 57.11 236.793 59.958 235.105 62.79C233.418 65.622 232.789 68.957 232.479 72.238C232.303 64.103 225.036 56.767 217.202 56.97H217.203Z" stroke="#010101" stroke-width="1.5" stroke-linecap="round" stroke-linejoin="round"></path>
<path d="M0.75 146.696C5.675 146.001 9.865 141.717 10.45 136.778C10.032 141.031 14.091 145.05 18.047 146.668C16.022 146.783 12.807 148.535 11.769 150.278C10.731 152.021 10.344 154.073 10.153 156.093C10.044 151.087 5.571 146.572 0.75 146.696Z" stroke="#010101" stroke-width="1.5" stroke-linecap="round" stroke-linejoin="round"></path>
<path d="M127.503 6.27899C129.257 11.038 131.239 15.713 133.439 20.283" stroke="#010101" stroke-width="1.5" stroke-linecap="round" stroke-linejoin="round"></path>
<path d="M162.958 15.735C165.581 11.501 169.726 4.983 172.348 0.75" stroke="#010101" stroke-width="1.5" stroke-linecap="round" stroke-linejoin="round"></path>
<path d="M66.466 91.162C64.077 85.199 61.659 78.608 63.695 72.515C64.643 69.678 66.493 67.229 68.521 65.029C78.102 54.635 119.077 39.166 135.003 33.337C143.372 30.274 151.864 32.685 158.042 42.741C170.216 62.558 199.889 136.981 215.541 183.25C216.668 186.58 217.796 190.162 216.849 193.547C215.95 196.76 213.334 199.188 210.625 201.134C206.302 204.239 201.477 206.565 196.637 208.781C177.054 217.747 166.392 221.481 145.654 227.292C141.833 228.363 137.781 229.381 133.947 228.359C127.894 226.745 124.304 220.688 121.389 215.143C103.62 181.335 65.885 90.452 66.466 91.162Z" fill="#7B5FF1" stroke="#010101" stroke-width="1.5" stroke-linecap="round" stroke-linejoin="round"></path>
<path d="M74.6521 94.51C72.5231 89.196 69.6281 82.213 71.4431 76.785C72.2881 74.257 73.9361 72.075 75.7431 70.115C84.2801 60.853 119.742 47.474 133.932 42.28C138.427 40.635 144.491 38.218 152.496 48.802C163.929 63.919 186.825 125.118 200.572 165.755C201.576 168.722 202.581 171.913 201.737 174.93C200.936 177.793 198.605 179.956 196.191 181.69C192.339 184.457 188.039 186.529 183.727 188.504C166.278 196.493 157.827 199.416 139.348 204.594C135.943 205.548 132.333 206.456 128.916 205.545C123.522 204.107 120.324 198.71 117.727 193.769C101.895 163.645 74.1341 93.877 74.6521 94.51Z" fill="white" stroke="#010101" stroke-width="1.5" stroke-linecap="round" stroke-linejoin="round"></path>
<path d="M103.233 86.897C98.6709 91.459 96.2979 97.873 95.2559 104.24C93.4459 115.299 96.5669 127.4 104.645 135.168C108.166 138.554 112.496 141.042 117.092 142.699C127.95 146.614 140.424 145.783 150.672 140.473C162.534 134.327 163.542 125.56 164.328 121.805C166.409 111.852 165.706 99.682 158.816 91.075C150.161 80.264 126.598 63.531 103.232 86.896L103.233 86.897Z" fill="#55D087" stroke="#010101" stroke-width="1.5" stroke-linecap="round" stroke-linejoin="round"></path>
<path d="M173.98 36.121C180.042 35.581 186.081 34.789 192.077 33.747" stroke="#010101" stroke-width="1.5" stroke-linecap="round" stroke-linejoin="round"></path>
<path d="M142.487 88.045C141.283 103.001 139.354 117.898 136.709 132.667C128.445 130.939 120.182 129.211 112.518 127.301C112.916 124.064 114.201 121.977 115.109 118.476C119.496 119.274 123.378 119.714 128.565 121.034C130.503 109.88 132.441 98.727 134.379 87.573C137.096 87.791 139.814 88.009 142.487 88.045Z" fill="white" stroke="#010101" stroke-width="1.5" stroke-linecap="round" stroke-linejoin="round"></path>
<path d="M29.72 237.813C46.784 200.551 64.077 162.907 89.298 130.603C91.503 127.779 94.99 124.692 98.189 126.305C101.41 127.929 100.967 132.624 99.87 136.06C96.789 145.712 97.095 147.174 93.044 155.721C97.082 164.103 100.252 173.312 105.223 180.847C106.82 184.46 108.416 188.074 109.522 191.545C107.191 200.355 104.665 209.12 101.633 217.714C96.205 233.097 89.18 247.859 82.169 262.587" fill="white"></path>
<path d="M29.72 237.813C46.784 200.551 64.077 162.907 89.298 130.603C91.503 127.779 94.99 124.692 98.189 126.305C101.41 127.929 100.967 132.624 99.87 136.06C96.789 145.712 97.095 147.174 93.044 155.721C97.082 164.103 100.252 173.312 105.223 180.847C106.82 184.46 108.416 188.074 109.522 191.545C107.191 200.355 104.665 209.12 101.633 217.714C96.205 233.097 89.18 247.859 82.169 262.587" stroke="#010101" stroke-width="1.5" stroke-linecap="round" stroke-linejoin="round"></path>
<path d="M93.127 156.204C91.452 159.169 89.776 162.134 88.101 165.099C89.868 165.66 91.19 167.15 92.137 168.743C94.209 172.227 94.882 176.401 94.739 180.453C94.596 184.504 93.684 188.484 92.776 192.435" stroke="#010101" stroke-width="1.5" stroke-linecap="round" stroke-linejoin="round"></path>
<path d="M172.664 200.02C170.776 199.449 166.599 200.739 165.556 203.441C164.497 206.184 165.852 209.549 168.384 211.042C169.153 211.496 170.034 211.801 170.926 211.763C174.117 211.628 177.547 209.996 177.283 206.46C177.105 204.078 176.567 201.199 172.664 200.02Z" fill="white" stroke="#010101" stroke-width="1.5" stroke-linecap="round" stroke-linejoin="round"></path>
<path d="M207.901 244.954C194.045 232.168 174.495 206.711 159.697 186.01C155.771 180.518 147.844 169.965 152.981 168.651C156.045 167.867 158.976 170.169 161.373 172.323C167.235 177.59 173.096 182.857 178.958 188.124C168.469 169.553 142.078 122.178 149.469 115.414C151.96 113.134 155.419 116.682 156.953 119.757C166.385 138.666 173.619 151.798 183.051 170.707C177.145 160.559 170.229 142.88 175.069 139.702C179.661 136.686 180.61 144.075 183.167 149.294C185.724 154.513 189.485 160.227 192.941 166.539C186.737 156.422 176.825 138.366 183.241 136.278C188.624 134.527 196.403 153.765 202.335 162.072C196.986 155.882 187.528 136.337 192.484 133.681C198.089 130.677 207.567 149.573 211.812 158.872C207.561 152.414 197.363 132.517 204.684 130.947C208.669 130.092 211.165 135.694 213.124 139.335C231.141 172.832 226.203 194.742 248.822 221.832" fill="white"></path>
<path d="M207.901 244.954C194.045 232.168 174.495 206.711 159.697 186.01C155.771 180.518 147.844 169.965 152.981 168.651C156.045 167.867 158.976 170.169 161.373 172.323C167.235 177.59 173.096 182.857 178.958 188.124C168.469 169.553 142.078 122.178 149.469 115.414C151.96 113.134 155.419 116.682 156.953 119.757C166.385 138.666 173.619 151.798 183.051 170.707C177.145 160.559 170.229 142.88 175.069 139.702C179.661 136.686 180.61 144.075 183.167 149.294C185.724 154.513 189.485 160.227 192.941 166.539C186.737 156.422 176.825 138.366 183.241 136.278C188.624 134.527 196.403 153.765 202.335 162.072C196.986 155.882 187.528 136.337 192.484 133.681C198.089 130.677 207.567 149.573 211.812 158.872C207.561 152.414 197.363 132.517 204.684 130.947C208.669 130.092 211.165 135.694 213.124 139.335C231.141 172.832 226.203 194.742 248.822 221.832" stroke="#010101" stroke-width="1.5" stroke-linecap="round" stroke-linejoin="round"></path>
<path d="M210.483 216.488C208.613 219.915 208.642 224.35 211.399 227.115C214.156 229.88 218.451 230.695 222.284 229.953C224.757 229.474 227.3 228.227 228.338 225.932C229.259 223.893 228.794 221.517 228.195 219.362C227.683 217.518 227.039 215.623 225.677 214.279C223.766 212.394 214.552 209.032 210.483 216.488Z" stroke="#010101" stroke-width="1.5" stroke-linecap="round" stroke-linejoin="round"></path>
<path d="M222.899 212.718C226.261 210.569 233.635 206.363 236.996 204.214" stroke="#010101" stroke-width="1.5" stroke-linecap="round" stroke-linejoin="round"></path>
<path d="M228.858 221.04C232.049 219.341 238.384 214.77 241.213 212.518" stroke="#010101" stroke-width="1.5" stroke-linecap="round" stroke-linejoin="round"></path>
<path d="M196.071 232.615C201.144 228.441 202.564 226.543 209.188 221.55" stroke="#010101" stroke-width="1.5" stroke-linecap="round" stroke-linejoin="round"></path>
<path d="M202.974 239.64C207.533 236.001 209.502 233.842 214.061 230.202" stroke="#010101" stroke-width="1.5" stroke-linecap="round" stroke-linejoin="round"></path>
<path d="M216.644 215.399L218.449 221.491C220.042 220.481 221.635 219.471 223.228 218.461" stroke="#010101" stroke-width="1.5" stroke-linecap="round" stroke-linejoin="round"></path>
</g>
<defs>
<clipPath id="clip0_35_3493">
<rect width="249.572" height="263.337" fill="white"></rect>
</clipPath>
</defs>
</svg>