<svg id="Layer_2" data-name="Layer 2" xmlns="http://www.w3.org/2000/svg" viewBox="0 0 907.087 858.036" style="width: 100%; height: 100%;">
  <g id="Layer_2-2" data-name="Layer 2">
    <g>
      <g>
        <polygon points="657.436 597.912 708.426 483.096 786.054 448.065 907.087 501.819 830.307 674.684 657.436 597.912" fill="#e3e3e3"></polygon>
        <rect x="711.885" y="550.457" width="140.331" height="4.783" rx="2.391" ry="2.391" transform="translate(293.638 -270.983) rotate(24.081)" fill="#292a2e" opacity=".05"></rect>
        <rect x="701.487" y="575.28" width="140.331" height="4.783" rx="2.391" ry="2.391" transform="translate(302.862 -264.579) rotate(24.081)" fill="#292a2e" opacity=".05"></rect>
        <path d="m772.261,605.236l-72.129-32.009c-1.206-.539-2.62.002-3.159,1.208h0c-.539,1.206.002,2.62,1.208,3.159l72.129,32.009c1.206.539,2.62-.002,3.159-1.208h0c.539-1.206-.002-2.62-1.208-3.159Z" fill="#292a2e" opacity=".05"></path>
        <polygon points="786.054 448.065 760.975 506.372 708.426 483.096 786.054 448.065" fill="#fff" opacity=".4"></polygon>
      </g>
      <g>
        <polygon points="40.646 316.234 12.346 193.834 53.306 119.164 182.336 89.334 224.936 273.624 40.646 316.234" fill="#e3e3e3"></polygon>
        <rect x="42.95" y="202.903" width="140.331" height="4.783" rx="2.391" ry="2.391" transform="translate(-42.928 30.39) rotate(-12.884)" fill="#292a2e" opacity=".05"></rect>
        <rect x="49.569" y="228.99" width="140.331" height="4.783" rx="2.391" ry="2.391" transform="translate(-48.578 32.523) rotate(-12.884)" fill="#292a2e" opacity=".05"></rect>
        <path d="m136.795,253.039l-76.879,17.797c-1.288.295-2.093,1.577-1.798,2.865h0c.295,1.288,1.577,2.093,2.865,1.798l76.879-17.797c1.288-.295,2.093-1.577,1.798-2.865h0c-.295-1.288-1.577-2.093-2.865-1.798Z" fill="#292a2e" opacity=".05"></path>
        <polygon points="53.306 119.164 68.329 180.833 12.346 193.834 53.306 119.164" fill="#fff" opacity=".4"></polygon>
      </g>
      <g>
        <g>
          <g>
            <path d="m655.014,691.451H137.998c-14.532,0-26.312-11.78-26.312-26.312l18-583.634h568.64l-17,583.634c0,14.532-11.78,26.312-26.312,26.312Z" fill="#292a2e"></path>
            <path d="m655.014,691.451H137.998c-14.532,0-26.312-11.78-26.312-26.312l18-583.634h568.64l-17,583.634c0,14.532-11.78,26.312-26.312,26.312Z" fill="#fff" opacity=".9"></path>
            <path d="m655.014,692.45H137.999c-15.06,0-27.312-12.252-27.312-27.312l18-584.634h570.64l-17,584.634c0,15.06-12.252,27.312-27.312,27.312ZM130.686,82.505l-18,582.634c0,13.957,11.355,25.312,25.312,25.312h517.016c13.957,0,25.312-11.355,25.312-25.312l17-582.634H130.686Z" fill="#292a2e"></path>
          </g>
          <path d="m674.014,23.635H156.999c-15.06,0-27.312,12.252-27.312,27.312l-1,31.557h570.64l2-31.557c0-15.06-12.252-27.312-27.312-27.312Z" fill="#000000"></path>
        </g>
        <g>
          <path d="m684.014,23.635H160.999c-15.06,0-27.312,12.252-27.312,27.312v31.557h577.64v-31.557c0-15.06-12.252-27.312-27.312-27.312Z" fill="#292a2e"></path>
          <g>
            <path d="m134.686,81.505h575.64v593.634c0,14.522-11.79,26.312-26.312,26.312H160.998c-14.522,0-26.312-11.79-26.312-26.312V81.505h0Z" fill="#fff"></path>
            <path d="m684.014,702.45H160.999c-15.06,0-27.312-12.252-27.312-27.312V80.505h577.64v594.634c0,15.06-12.252,27.312-27.312,27.312ZM135.686,82.505v592.634c0,13.957,11.355,25.312,25.312,25.312h523.016c13.957,0,25.312-11.355,25.312-25.312V82.505H135.686Z" fill="#292a2e"></path>
          </g>
          <path d="m236.653,204.784h-57.459c-6.661,0-12.08-5.418-12.08-12.079v-57.459c0-6.661,5.419-12.079,12.08-12.079h57.459c6.661,0,12.08,5.418,12.08,12.079v57.459c0,6.661-5.419,12.079-12.08,12.079Zm-57.459-79.618c-5.558,0-10.08,4.521-10.08,10.079v57.459c0,5.558,4.521,10.079,10.08,10.079h57.459c5.558,0,10.08-4.521,10.08-10.079v-57.459c0-5.558-4.521-10.079-10.08-10.079h-57.459Z" fill="#292a2e"></path>
          <path d="m236.653,318.622h-57.459c-6.661,0-12.08-5.419-12.08-12.08v-57.459c0-6.661,5.419-12.08,12.08-12.08h57.459c6.661,0,12.08,5.419,12.08,12.08v57.459c0,6.661-5.419,12.08-12.08,12.08Zm-57.459-79.618c-5.558,0-10.08,4.521-10.08,10.08v57.459c0,5.558,4.521,10.08,10.08,10.08h57.459c5.558,0,10.08-4.521,10.08-10.08v-57.459c0-5.558-4.521-10.08-10.08-10.08h-57.459Z" fill="#292a2e"></path>
          <path d="m236.653,432.46h-57.459c-6.661,0-12.08-5.419-12.08-12.08v-57.459c0-6.661,5.419-12.079,12.08-12.079h57.459c6.661,0,12.08,5.418,12.08,12.079v57.459c0,6.661-5.419,12.08-12.08,12.08Zm-57.459-79.618c-5.558,0-10.08,4.521-10.08,10.079v57.459c0,5.558,4.521,10.08,10.08,10.08h57.459c5.558,0,10.08-4.521,10.08-10.08v-57.459c0-5.558-4.521-10.079-10.08-10.079h-57.459Z" fill="#292a2e"></path>
          <path d="m236.653,544.734h-57.459c-6.661,0-12.08-5.418-12.08-12.079v-57.459c0-6.661,5.419-12.08,12.08-12.08h57.459c6.661,0,12.08,5.419,12.08,12.08v57.459c0,6.661-5.419,12.079-12.08,12.079Zm-57.459-79.618c-5.558,0-10.08,4.521-10.08,10.08v57.459c0,5.558,4.521,10.079,10.08,10.079h57.459c5.558,0,10.08-4.521,10.08-10.079v-57.459c0-5.558-4.521-10.08-10.08-10.08h-57.459Z" fill="#292a2e"></path>
          <path d="m236.653,657.008h-57.459c-6.661,0-12.08-5.419-12.08-12.08v-57.459c0-6.661,5.419-12.08,12.08-12.08h57.459c6.661,0,12.08,5.419,12.08,12.08v57.459c0,6.661-5.419,12.08-12.08,12.08Zm-57.459-79.618c-5.558,0-10.08,4.521-10.08,10.08v57.459c0,5.558,4.521,10.08,10.08,10.08h57.459c5.558,0,10.08-4.521,10.08-10.08v-57.459c0-5.558-4.521-10.08-10.08-10.08h-57.459Z" fill="#292a2e"></path>
          <path d="m197.702,186.963c-.998,0-1.996-.371-2.771-1.116l-16.748-16.097c-1.593-1.531-1.643-4.063-.112-5.656,1.531-1.592,4.062-1.643,5.656-.112l13.908,13.367,34.861-35.177c1.555-1.57,4.088-1.581,5.657-.026,1.569,1.555,1.581,4.088.026,5.657l-37.634,37.975c-.782.789-1.812,1.185-2.842,1.185Z" fill="#000000"></path>
          <path d="m197.702,300.801c-.998,0-1.996-.371-2.771-1.116l-16.748-16.097c-1.593-1.531-1.643-4.063-.112-5.656,1.531-1.592,4.062-1.643,5.656-.112l13.908,13.367,34.861-35.176c1.555-1.569,4.088-1.581,5.657-.026,1.569,1.555,1.581,4.088.026,5.657l-37.634,37.975c-.782.789-1.812,1.185-2.842,1.185Z" fill="#000000"></path>
          <path d="m197.702,414.639c-.998,0-1.996-.371-2.771-1.116l-16.748-16.097c-1.593-1.531-1.643-4.063-.112-5.656,1.531-1.592,4.062-1.643,5.656-.112l13.908,13.367,34.861-35.177c1.555-1.569,4.088-1.581,5.657-.026,1.569,1.555,1.581,4.088.026,5.657l-37.634,37.975c-.782.789-1.811,1.185-2.842,1.185Z" fill="#000000"></path>
          <rect x="277.346" y="146.184" width="392.57" height="5.582" rx="2.791" ry="2.791" fill="#262626" opacity=".5"></rect>
          <rect x="277.346" y="176.184" width="232.57" height="5.582" rx="2.791" ry="2.791" fill="#262626" opacity=".5"></rect>
          <rect x="277.346" y="260.022" width="392.57" height="5.582" rx="2.791" ry="2.791" fill="#262626" opacity=".5"></rect>
          <rect x="277.346" y="290.022" width="232.57" height="5.582" rx="2.791" ry="2.791" fill="#262626" opacity=".5"></rect>
          <rect x="277.346" y="373.86" width="392.57" height="5.582" rx="2.791" ry="2.791" fill="#262626" opacity=".5"></rect>
          <rect x="277.346" y="403.86" width="232.57" height="5.582" rx="2.791" ry="2.791" fill="#262626" opacity=".5"></rect>
          <rect x="277.346" y="486.134" width="392.57" height="5.582" rx="2.791" ry="2.791" fill="#262626" opacity=".5"></rect>
          <rect x="277.346" y="516.134" width="232.57" height="5.582" rx="2.791" ry="2.791" fill="#262626" opacity=".5"></rect>
          <rect x="277.346" y="598.407" width="392.57" height="5.582" rx="2.791" ry="2.791" fill="#262626" opacity=".5"></rect>
          <rect x="277.346" y="628.407" width="232.57" height="5.582" rx="2.791" ry="2.791" fill="#262626" opacity=".5"></rect>
        </g>
        <g>
          <path d="m203.856,0c-13.033,0-23.635,10.603-23.635,23.635h2c0-11.93,9.706-21.635,21.635-21.635s21.635,9.706,21.635,21.635c0,10.918-8.13,19.968-18.654,21.425-.539-1.108-1.666-1.879-2.982-1.879-1.837,0-3.326,1.489-3.326,3.326s1.489,3.326,3.326,3.326c1.655,0,3.017-1.212,3.273-2.795,11.489-1.599,20.363-11.482,20.363-23.404,0-13.033-10.603-23.635-23.635-23.635Z" fill="#e3e3e3"></path>
          <path d="m664.791,23.635c0-13.033-10.603-23.635-23.635-23.635s-23.635,10.603-23.635,23.635h2c0-11.93,9.706-21.635,21.635-21.635s21.635,9.706,21.635,21.635c0,10.918-8.13,19.968-18.654,21.425-.539-1.108-1.666-1.879-2.982-1.879-1.837,0-3.326,1.489-3.326,3.326s1.489,3.326,3.326,3.326c1.655,0,3.017-1.212,3.273-2.795,11.489-1.599,20.363-11.482,20.363-23.404Z" fill="#e3e3e3"></path>
          <path d="m602.32,23.635c0-13.033-10.603-23.635-23.635-23.635s-23.635,10.603-23.635,23.635h2c0-11.93,9.706-21.635,21.635-21.635s21.635,9.706,21.635,21.635c0,10.918-8.13,19.968-18.654,21.425-.539-1.108-1.666-1.879-2.982-1.879-1.837,0-3.326,1.489-3.326,3.326s1.489,3.326,3.326,3.326c1.655,0,3.017-1.212,3.273-2.795,11.489-1.599,20.363-11.482,20.363-23.404Z" fill="#e3e3e3"></path>
          <path d="m539.849,23.635c0-13.033-10.603-23.635-23.635-23.635s-23.635,10.603-23.635,23.635h2c0-11.93,9.706-21.635,21.635-21.635s21.635,9.706,21.635,21.635c0,10.918-8.13,19.968-18.654,21.425-.539-1.108-1.666-1.879-2.982-1.879-1.837,0-3.326,1.489-3.326,3.326s1.489,3.326,3.326,3.326c1.655,0,3.017-1.212,3.273-2.795,11.489-1.599,20.363-11.482,20.363-23.404Z" fill="#e3e3e3"></path>
          <path d="m477.377,23.635c0-13.033-10.603-23.635-23.635-23.635s-23.635,10.603-23.635,23.635h2c0-11.93,9.706-21.635,21.635-21.635s21.635,9.706,21.635,21.635c0,10.918-8.13,19.968-18.654,21.425-.539-1.108-1.666-1.879-2.982-1.879-1.837,0-3.326,1.489-3.326,3.326s1.489,3.326,3.326,3.326c1.655,0,3.017-1.212,3.273-2.795,11.489-1.599,20.363-11.482,20.363-23.404Z" fill="#e3e3e3"></path>
          <path d="m414.906,23.635c0-13.033-10.603-23.635-23.635-23.635s-23.635,10.603-23.635,23.635h2c0-11.93,9.706-21.635,21.635-21.635s21.635,9.706,21.635,21.635c0,10.918-8.13,19.968-18.654,21.425-.539-1.108-1.666-1.879-2.982-1.879-1.837,0-3.326,1.489-3.326,3.326s1.489,3.326,3.326,3.326c1.655,0,3.017-1.212,3.273-2.795,11.489-1.599,20.363-11.482,20.363-23.404Z" fill="#e3e3e3"></path>
          <path d="m352.434,23.635c0-13.033-10.603-23.635-23.635-23.635s-23.635,10.603-23.635,23.635h2c0-11.93,9.706-21.635,21.635-21.635s21.635,9.706,21.635,21.635c0,10.918-8.13,19.968-18.654,21.425-.539-1.108-1.666-1.879-2.982-1.879-1.837,0-3.326,1.489-3.326,3.326s1.489,3.326,3.326,3.326c1.655,0,3.017-1.212,3.273-2.795,11.489-1.599,20.363-11.482,20.363-23.404Z" fill="#e3e3e3"></path>
          <path d="m289.963,23.635c0-13.033-10.603-23.635-23.635-23.635s-23.635,10.603-23.635,23.635h2c0-11.93,9.706-21.635,21.635-21.635s21.635,9.706,21.635,21.635c0,10.918-8.13,19.968-18.654,21.425-.539-1.108-1.666-1.879-2.982-1.879-1.837,0-3.326,1.489-3.326,3.326s1.489,3.326,3.326,3.326c1.655,0,3.017-1.212,3.273-2.795,11.489-1.599,20.363-11.482,20.363-23.404Z" fill="#e3e3e3"></path>
        </g>
        <g fill="none" opacity=".6">
          <path d="m203.856,0c-13.033,0-23.635,10.603-23.635,23.635h2c0-11.93,9.706-21.635,21.635-21.635s21.635,9.706,21.635,21.635c0,10.918-8.13,19.968-18.654,21.425-.539-1.108-1.666-1.879-2.982-1.879-1.837,0-3.326,1.489-3.326,3.326s1.489,3.326,3.326,3.326c1.655,0,3.017-1.212,3.273-2.795,11.489-1.599,20.363-11.482,20.363-23.404,0-13.033-10.603-23.635-23.635-23.635Z" fill="#292a2e"></path>
          <path d="m664.791,23.635c0-13.033-10.603-23.635-23.635-23.635s-23.635,10.603-23.635,23.635h2c0-11.93,9.706-21.635,21.635-21.635s21.635,9.706,21.635,21.635c0,10.918-8.13,19.968-18.654,21.425-.539-1.108-1.666-1.879-2.982-1.879-1.837,0-3.326,1.489-3.326,3.326s1.489,3.326,3.326,3.326c1.655,0,3.017-1.212,3.273-2.795,11.489-1.599,20.363-11.482,20.363-23.404Z" fill="#292a2e"></path>
          <path d="m602.32,23.635c0-13.033-10.603-23.635-23.635-23.635s-23.635,10.603-23.635,23.635h2c0-11.93,9.706-21.635,21.635-21.635s21.635,9.706,21.635,21.635c0,10.918-8.13,19.968-18.654,21.425-.539-1.108-1.666-1.879-2.982-1.879-1.837,0-3.326,1.489-3.326,3.326s1.489,3.326,3.326,3.326c1.655,0,3.017-1.212,3.273-2.795,11.489-1.599,20.363-11.482,20.363-23.404Z" fill="#292a2e"></path>
          <path d="m539.849,23.635c0-13.033-10.603-23.635-23.635-23.635s-23.635,10.603-23.635,23.635h2c0-11.93,9.706-21.635,21.635-21.635s21.635,9.706,21.635,21.635c0,10.918-8.13,19.968-18.654,21.425-.539-1.108-1.666-1.879-2.982-1.879-1.837,0-3.326,1.489-3.326,3.326s1.489,3.326,3.326,3.326c1.655,0,3.017-1.212,3.273-2.795,11.489-1.599,20.363-11.482,20.363-23.404Z" fill="#292a2e"></path>
          <path d="m477.377,23.635c0-13.033-10.603-23.635-23.635-23.635s-23.635,10.603-23.635,23.635h2c0-11.93,9.706-21.635,21.635-21.635s21.635,9.706,21.635,21.635c0,10.918-8.13,19.968-18.654,21.425-.539-1.108-1.666-1.879-2.982-1.879-1.837,0-3.326,1.489-3.326,3.326s1.489,3.326,3.326,3.326c1.655,0,3.017-1.212,3.273-2.795,11.489-1.599,20.363-11.482,20.363-23.404Z" fill="#292a2e"></path>
          <path d="m414.906,23.635c0-13.033-10.603-23.635-23.635-23.635s-23.635,10.603-23.635,23.635h2c0-11.93,9.706-21.635,21.635-21.635s21.635,9.706,21.635,21.635c0,10.918-8.13,19.968-18.654,21.425-.539-1.108-1.666-1.879-2.982-1.879-1.837,0-3.326,1.489-3.326,3.326s1.489,3.326,3.326,3.326c1.655,0,3.017-1.212,3.273-2.795,11.489-1.599,20.363-11.482,20.363-23.404Z" fill="#292a2e"></path>
          <path d="m352.434,23.635c0-13.033-10.603-23.635-23.635-23.635s-23.635,10.603-23.635,23.635h2c0-11.93,9.706-21.635,21.635-21.635s21.635,9.706,21.635,21.635c0,10.918-8.13,19.968-18.654,21.425-.539-1.108-1.666-1.879-2.982-1.879-1.837,0-3.326,1.489-3.326,3.326s1.489,3.326,3.326,3.326c1.655,0,3.017-1.212,3.273-2.795,11.489-1.599,20.363-11.482,20.363-23.404Z" fill="#292a2e"></path>
          <path d="m289.963,23.635c0-13.033-10.603-23.635-23.635-23.635s-23.635,10.603-23.635,23.635h2c0-11.93,9.706-21.635,21.635-21.635s21.635,9.706,21.635,21.635c0,10.918-8.13,19.968-18.654,21.425-.539-1.108-1.666-1.879-2.982-1.879-1.837,0-3.326,1.489-3.326,3.326s1.489,3.326,3.326,3.326c1.655,0,3.017-1.212,3.273-2.795,11.489-1.599,20.363-11.482,20.363-23.404Z" fill="#292a2e"></path>
        </g>
      </g>
      <g>
        <path d="m75.8,724.795c-.256,0-.512-.098-.707-.293-1.409-1.409-3.706-27.259-9.892-104.223-2.531-31.492-4.922-61.238-6.667-79.315-.125-1.291-.625-1.441-.79-1.491-2.388-.721-9.652,5.007-13.707,10.022-.347.429-.977.497-1.407.149-.429-.348-.496-.977-.149-1.407,2.682-3.316,11.422-12.009,15.838-10.68.891.268,1.996,1.042,2.206,3.214,1.746,18.093,4.137,47.847,6.669,79.347,3.759,46.77,8.018,99.756,9.417,103.093.282.391.247.939-.105,1.291-.195.195-.451.293-.707.293Z" fill="#000000"></path>
        <ellipse cx="38.203" cy="551.981" rx="38.507" ry="28.398" transform="translate(-336.839 145.181) rotate(-38.715)" fill="#e3e3e3"></ellipse>
        <ellipse cx="38.203" cy="551.981" rx="38.507" ry="28.398" transform="translate(-336.839 145.181) rotate(-38.715)" fill="#fff" opacity=".2"></ellipse>
        <path d="m12.81,579.174c-.112,0-.225-.038-.319-.115-.212-.176-.242-.491-.065-.704l47.291-57.029c.176-.211.491-.242.704-.065.212.176.242.491.065.704l-47.291,57.029c-.099.119-.241.181-.385.181Z" fill="#fff"></path>
        <path d="m86.114,712.57c-.109,0-.22-.018-.329-.056-.521-.181-.797-.751-.616-1.273l17.764-51.087c1.066-3.065,3.586-5.351,6.741-6.112,3.156-.763,6.44.122,8.788,2.364l9.391,8.971c.399.381.414,1.015.032,1.414-.382.399-1.015.413-1.414.032l-9.391-8.971c-1.853-1.77-4.445-2.469-6.937-1.867-2.49.601-4.479,2.405-5.321,4.825l-17.764,51.087c-.144.413-.53.672-.944.672Z" fill="#000000"></path>
        <ellipse cx="130.193" cy="663.463" rx="28.398" ry="38.507" transform="translate(-383.666 224.052) rotate(-38.363)" fill="#e3e3e3"></ellipse>
        <path d="m67.73,721.538c-.452,0-.862-.309-.972-.768l-29.811-124.645c-.422-1.767-1.729-3.079-3.494-3.51-1.765-.429-3.53.133-4.718,1.506l-9.189,10.619c-.361.417-.994.463-1.411.102-.417-.361-.463-.993-.102-1.411l9.189-10.619c1.665-1.924,4.233-2.744,6.705-2.141,2.471.603,4.374,2.514,4.965,4.988l29.811,124.645c.128.537-.203,1.077-.74,1.205-.078.019-.156.027-.233.027Z" fill="#000000"></path>
        <ellipse cx="28.748" cy="627.591" rx="38.507" ry="28.398" transform="translate(-594.563 548.982) rotate(-80.189)" fill="#e3e3e3"></ellipse>
        <path d="m75.801,724.795c-.041,0-.082-.002-.124-.007-.548-.068-.938-.567-.871-1.115l19.036-154.558c.43-3.486,2.78-6.296,6.135-7.335,3.354-1.039,6.883-.049,9.207,2.583l21.758,24.643c.366.414.326,1.046-.088,1.412-.414.366-1.046.326-1.411-.087l-21.758-24.643c-1.797-2.035-4.522-2.799-7.116-1.997-2.593.803-4.41,2.975-4.741,5.669l-19.036,154.558c-.062.507-.494.878-.991.878Z" fill="#000000"></path>
        <ellipse cx="119.563" cy="584.063" rx="28.398" ry="38.507" transform="translate(-449.394 405.981) rotate(-61.051)" fill="#e3e3e3"></ellipse>
        <ellipse cx="130.193" cy="663.463" rx="28.398" ry="38.507" transform="translate(-383.666 224.052) rotate(-38.363)" fill="#fff" opacity=".2"></ellipse>
        <ellipse cx="28.748" cy="627.591" rx="38.507" ry="28.398" transform="translate(-594.563 548.982) rotate(-80.189)" fill="#fff" opacity=".5"></ellipse>
        <ellipse cx="119.563" cy="584.063" rx="28.398" ry="38.507" transform="translate(-449.394 405.981) rotate(-61.051)" fill="#fff" opacity=".5"></ellipse>
        <polygon points="100.148 855.937 51.451 855.937 43.382 700.133 108.217 700.133 100.148 855.937" fill="#292a2e"></polygon>
        <polygon points="100.148 855.937 51.451 855.937 43.382 700.133 108.217 700.133 100.148 855.937" fill="#fff" opacity=".3"></polygon>
        <path d="m154.093,694.157c-.148,0-.294-.065-.393-.189l-47.799-60.386c-.171-.217-.135-.531.082-.703.218-.172.532-.134.703.082l47.799,60.386c.171.217.135.531-.082.703-.092.073-.202.108-.31.108Z" fill="#fff"></path>
        <path d="m150.08,607.539c-.102,0-.206-.031-.294-.096l-61.167-44.663c-.223-.163-.272-.476-.109-.699.163-.223.476-.272.699-.109l61.167,44.663c.223.163.272.476.109.699-.098.134-.25.205-.404.205Z" fill="#fff"></path>
        <path d="m19.705,664.888c-.043,0-.086-.005-.129-.017-.267-.071-.425-.345-.354-.612l19.472-72.953c.071-.267.35-.424.612-.354.267.071.425.345.354.612l-19.472,72.953c-.06.224-.262.371-.482.371Z" fill="#fff"></path>
      </g>
      <g>
        <g>
          <path d="m547.921,133.441s-9.791-9.738-9.898-29.08c-.083-14.976,12.164-3.604,12.164-3.604,0,0,.045-10.784,7.615-8.677,7.57,2.108,10.37,13.827,10.37,13.827" fill="#000000"></path>
          <path d="m597.521,98.783s37.727,9.35,16.779,59.338l-3.419-.237-6.941-.481" fill="#000000"></path>
          <path id="sk" d="m549.097,210.074c.17-.022,2.056,31.264,38.401,28.537,25.162-1.885,34.133-28.581,34.71-28.581-2.713-.577-6.066-1.452-7.398-1.752-4.427-.998-9.953-4.65-11.23-12.345-.736-4.435.513-27.122.128-31.609l-38.623,8.621c.54,9.476,4.317,31.445-8.922,35.333-2.203.643-4.576,1.234-7.067,1.796Z" fill="#ff9e85"></path>
          <path id="sh" d="m564.544,199.3c.547-1.746.873-3.265,1.162-5.995.517-4.882.242-9.37-.252-13.943,7.803-1.039,15.294-4.32,21.347-9.352.717,2.649,4.661,14.222,3.569,16.739-2.064,4.758-11.764,12.55-25.825,12.55Z" fill="#000000" opacity=".22"></path>
          <path d="m570.321,190.175c15.282.714,34.657-6.35,37.725-26.806l2.768-18.458c3.068-20.457-5.19-38.651-24.451-41.539h0c-19.261-2.888-36.144,11.536-39.212,31.993l-1.225,8.172c-.252,1.682-.528,4.727-.538,8.486-.019,7.499-.019,18.906,3.942,27.165,3.74,7.797,11.228,10.532,20.991,10.989Z" fill="#ff9e85"></path>
          <g>
            <g>
              <circle id="e1_eye" cx="553.921" cy="146.552" r="2.124" fill="#0a0a0a"></circle>
              <g id="e1_n">
                <path d="m567.334,163.066c.43,0,.798-.325.844-.761.049-.467-.29-.885-.757-.933l-4.499-.47,2.769-8.986c.138-.448-.114-.924-.562-1.062-.448-.138-.923.113-1.062.562l-3.073,9.974c-.075.243-.037.506.104.718s.368.35.621.377l5.527.578c.03.003.06.005.089.005Z" fill="#0a0a0a"></path>
              </g>
              <g id="e1_m">
                <path d="m568.332,172.686c7.7,0,9.991-4.653,10.094-4.871.2-.424.018-.93-.406-1.131-.421-.2-.926-.02-1.128.401-.096.198-2.447,4.768-10.921,3.755-.475-.059-.889.277-.945.743-.056.466.277.888.742.944.914.109,1.768.159,2.563.159Z" fill="#0a0a0a"></path>
              </g>
              <path id="e1_eb" d="m574.759,138.853c-.204.633,2.098,1.579,5.335,2.446s6.167,1.493,6.387.695c.278-1.008-2.134-3.381-5.371-4.248-3.237-.867-6.03.112-6.351,1.107Z" fill="#0a0a0a"></path>
              <circle id="e1_eye-2" data-name="e1_eye" cx="575.217" cy="147.906" r="2.124" fill="#0a0a0a"></circle>
            </g>
            <path id="e1_eb-2" data-name="e1_eb" d="m548.965,139.297c.07.661,2.558.592,5.869.071,3.31-.521,6.242-1.138,6.119-1.956-.155-1.034-2.978-2.298-6.288-1.777-3.31.521-5.81,2.622-5.7,3.662Z" fill="#0a0a0a"></path>
          </g>
          <path d="m605.915,169.422c5.853.878,11.537-4.673,12.415-10.526.878-5.853-3.383-9.793-9.237-10.671l-3.604,3.47-4.607,16.972,5.032.755Z" fill="#ff9e85"></path>
          <path d="m603.18,159.285c-.99-.046-1.758-.879-1.717-1.869.268-6.397.619-27.932-6.648-30.478-5.693-1.995-21.031,4.367-33.841.056-5.604-1.886-11.262-1.21-12.19,1.432-.368,1.046-1.834-14.911,8.785-25.415,8.455-8.363,32.296-7.785,42.558-3.258,28.415,12.537,9.999,49.914,9.999,49.914l-2.307,8.425c-.223.813-.98,1.364-1.822,1.324l-2.817-.132Z" fill="#000000"></path>
          <ellipse cx="570.259" cy="103.212" rx="11.927" ry="8.103" transform="translate(281.724 605.802) rotate(-70.399)" fill="#000000"></ellipse>
        </g>
        <path d="m842.335,296.812l2.812-2.316c1.788-1.598,2.195-4.37.692-6.239-1.602-1.994-4.525-2.216-6.408-.533l-33.37,29.624,9.225,10.934c5.861,6.947,15.351,9.644,23.989,6.816l19.117-6.296c2.036-.666,3.451-2.654,3.18-4.779-.262-2.051-19.236-27.211-19.236-27.211Z" fill="#ff9e85"></path>
        <path d="m822.39,297.041l-92.054,28.525-56.132-95.093-47.958,28.042,70.767,114.368.449.572c7.39,9.176,20.051,13.118,31.758,8.9l109.727-39.746-16.556-45.567Z" fill="#000000"></path>
        <g>
          <polygon points="878.57 797.459 801.82 801.066 772.218 297.154 848.969 293.548 878.57 797.459" fill="#000000"></polygon>
          <polygon points="878.57 797.459 801.82 801.066 772.218 297.154 848.969 293.548 878.57 797.459" fill="#fff" opacity=".5"></polygon>
          <rect x="770.871" y="239.802" width="76.835" height="55.58" transform="translate(-11.669 38.284) rotate(-2.691)" fill="#262626"></rect>
          <path d="m878.573,797.458s-10.531,18.286-20.021,34.637c-7.527,12.968-14.4,24.72-14.844,25.158-.456.456-9.035-10.952-18.309-23.604-11.273-15.37-23.58-32.586-23.58-32.586l76.755-3.606Z" fill="#000000"></path>
          <path d="m878.573,797.458s-10.531,18.286-20.021,34.637c-7.527,12.968-14.4,24.72-14.844,25.158-.456.456-9.035-10.952-18.309-23.604-11.273-15.37-23.58-32.586-23.58-32.586l76.755-3.606Z" fill="#fff" opacity=".9"></path>
          <path d="m858.551,832.095c-7.527,12.968-14.4,24.72-14.844,25.158-.456.456-9.035-10.952-18.309-23.604l33.153-1.555Z" fill="#262626"></path>
          <polygon points="854.666 798.436 823.712 294.835 827.214 294.659 858.167 798.259 854.666 798.436" fill="#fff"></polygon>
          <polygon points="824.639 799.859 793.685 296.258 797.187 296.082 828.141 799.682 824.639 799.859" fill="#fff"></polygon>
        </g>
        <path d="m837.426,320.309c0-2.325,1.566-3.722,3.23-4.277-.033-.071-.163-.22-.037-.27l-3.646-.646c-2.204-.391-3.944-2.304-3.825-4.539.123-2.318,1.969-4.018,4.121-4.131-.025-.035-.017-.084-.03-.126l-1.498-.266c-2.073-.368-3.725-2.106-3.755-4.212-.04-2.833,2.47-4.859,5.115-4.39l3.458.613c0-.019-.016-.033-.012-.052.002-.024.029-.037.036-.06-1.833-.771-2.961-2.725-2.599-4.765.279-2.537,3.275-3.48,5.511-3.084l6.946,1.795c2.178.563,3.925,2.178,4.663,4.303,3.143,9.049,10.789,32.881,3.654,31.617l-17.566-3.112c-2.027-.359-3.763-2.338-3.763-4.397Z" fill="#ff9e85"></path>
        <g>
          <path d="m619.313,795.335s12.144,20.51-3.39,36.02c-15.534,15.51-.399,25.423-.399,25.423l62.669-55.542-27.75-31.31-31.13,25.409Z" fill="#000000"></path>
          <path d="m512.682,391.045s-7.057,203.471-6.16,213.4c3.394,37.563,113.938,207.773,113.938,207.773l41.163-35.146-52.563-106.477-33.231-74.191s5.72-63.816,21.139-123.073c7.912-30.406,12.613-61.557,14.168-92.938h0s-98.454,10.651-98.454,10.651Z" fill="#262626"></path>
          <path d="m617.286,813.352s-4.515,23.404-26.428,24.708c-21.913,1.304-17.161,18.761-17.161,18.761h83.739v-41.837s-40.15-1.632-40.15-1.632Z" fill="#000000"></path>
          <path d="m663.115,386.422s-.263-7.036-.207,8.924c.207,59.529-1.776,432.943-1.776,432.943l-55.026-.462-33.333-443.823,90.342,2.419Z" fill="#262626"></path>
          <path d="m584.074,535.295l-4.513-69.009s-4.635,28.689-4.635,53.417c0,12.087,2.49,59.942,2.49,59.942l6.658-44.35Z" fill="#0a0a0a"></path>
        </g>
        <polygon points="591.413 631.199 602.859 784.599 592.145 767.362 581.193 608.382 591.413 631.199" fill="#0a0a0a"></polygon>
        <path d="m504.709,278.113c1.135,13.332,6.655,96.51,7.746,112.931h150.372c.849-14.811,4.664-79.575,7.885-108.539,3.075-27.638,9.108-42.475,4.686-50.646-7.226-13.354-26.972-20.071-40.436-21.894-8.222-1.113-20.587-1.911-20.587-1.911,0,0-1.047,21.181-26.013,22.359-33.986,1.603-31.716-22.359-31.884-22.359-12.339,0-35.691,2.952-44.653,9.046-20.151,13.703-9.525,32.759-7.116,61.012Z" fill="#000000"></path>
        <g id="ha">
          <path id="sk-2" data-name="sk" d="m498.851,412.774c2.719-.958,3.77-4.067,2.392-6.427l2.897,4.962c1.209,2.071,3.844,3.022,5.976,1.923,2.273-1.172,3.074-3.992,1.801-6.173l1.311,2.246c1.08,1.85,3.321,2.815,5.341,2.103,2.718-.958,3.77-4.067,2.392-6.427l-2.296-3.934c1.233,2.112,3.945,2.825,6.058,1.592h0c2.323-1.159,2.17-4.351,1.006-6.345l-4.323-8.051,2.856,2.261c1.939,1.412,4.734,1.226,6.245-.636,1.612-1.986,1.214-4.89-.827-6.377l-25.983-16.388-18.748,1.319c-5.558,7.192-6.197,17.037-1.614,24.886l10.178,17.363c1.08,1.85,3.321,2.815,5.341,2.103Z" fill="#ff9e85"></path>
          <path id="sk-3" data-name="sk" d="m515.736,396.124c-.018-.165.064-.332.22-.414.204-.107.455-.028.562.175l2.863,5.453c.105.203.028.455-.175.562-.204.107-.455.028-.562-.175l-2.863-5.453c-.025-.048-.04-.098-.045-.148Z" fill="#ff9e85"></path>
          <path id="sk-4" data-name="sk" d="m508.025,400.184c-.018-.164.063-.329.217-.412.202-.108.455-.032.563.171l3.986,7.451c.107.201.033.454-.171.563-.202.108-.455.032-.563-.171l-3.986-7.451c-.026-.048-.041-.099-.047-.151Z" fill="#ff9e85"></path>
          <path id="sk-5" data-name="sk" d="m499.649,404.534c-.018-.167.067-.336.226-.417.205-.103.456-.021.559.184l1.8,3.563c.103.205.021.455-.184.559-.205.103-.456.021-.559-.184l-1.8-3.563c-.023-.046-.037-.094-.042-.143Z" fill="#ff9e85"></path>
          <path id="sh-2" data-name="sh" d="m515.736,396.124c-.018-.165.064-.332.22-.414.204-.107.455-.028.562.175l2.863,5.453c.105.203.028.455-.175.562-.204.107-.455.028-.562-.175l-2.863-5.453c-.025-.048-.04-.098-.045-.148Z" fill="#000000" opacity=".2"></path>
          <path id="sh-3" data-name="sh" d="m508.025,400.184c-.018-.164.063-.329.217-.412.202-.108.455-.032.563.171l3.986,7.451c.107.201.033.454-.171.563-.202.108-.455.032-.563-.171l-3.986-7.451c-.026-.048-.041-.099-.047-.151Z" fill="#000000" opacity=".2"></path>
          <path id="sh-4" data-name="sh" d="m499.649,404.534c-.018-.167.067-.336.226-.417.205-.103.456-.021.559.184l1.8,3.563c.103.205.021.455-.184.559-.205.103-.456.021-.559-.184l-1.8-3.563c-.023-.046-.037-.094-.042-.143Z" fill="#000000" opacity=".2"></path>
        </g>
        <path d="m538.435,268.445s-12.07-56.583-25.761-51.872c-10.866,3.739-92.488,71.002-94.964,73.44-11.362,11.183-11.508,29.46-.324,40.823l63.529,72.69,36.665-34.368-48.212-52.097,69.067-48.616Z" fill="#000000"></path>
        <path d="m505.54,292.952c-.2,0-.369-.154-.385-.357l-1.614-22.371c-.016-.213.143-.399.356-.414.225-.014.399.143.415.356l1.614,22.371c.016.213-.143.399-.356.414-.011,0-.02.001-.03.001Z" fill="#000000"></path>
        <path d="m667.307,327.064c-.01,0-.019,0-.028,0-.213-.01-.378-.192-.367-.405l2.669-53.577c.011-.214.21-.38.405-.367.213.01.378.192.367.405l-2.669,53.577c-.01.204-.177.363-.377.367Z" fill="#000000"></path>
      </g>
      <path d="m883.241,858.036H21.772c-.426,0-.773-.346-.773-.773s.346-.773.773-.773h861.469c.427,0,.773.346.773.773s-.346.773-.773.773Z" fill="#3f3f3f"></path>
    </g>
  </g>
</svg>